<svg width="25" height="25" viewBox="0 0 25 25" fill="none" xmlns="http://www.w3.org/2000/svg">
<path d="M9.99639 12.0012L1.62198 3.62465C1.22392 3.22647 1.0003 2.68649 1.0003 2.12346C1.0003 1.56043 1.22392 1.02045 1.62198 0.622262C2.01981 0.22679 2.55797 0.00481324 3.11893 0.00481324C3.67988 0.00481324 4.21804 0.22679 4.61587 0.622262L12.9988 8.99668L21.3753 0.622262C21.7735 0.224199 22.3135 0.000579834 22.8765 0.000579834C23.4395 0.000579834 23.9795 0.224199 24.3777 0.622262C24.7758 1.02045 24.9994 1.56043 24.9994 2.12346C24.9994 2.68649 24.7758 3.22647 24.3777 3.62465L16.0033 12.0012L24.3777 20.3841C24.7758 20.7823 24.9994 21.3223 24.9994 21.8853C24.9994 22.4483 24.7758 22.9883 24.3777 23.3865C23.9795 23.7845 23.4395 24.0082 22.8765 24.0082C22.3135 24.0082 21.7735 23.7845 21.3753 23.3865L12.9988 15.0036L4.61587 23.378C4.21769 23.7761 3.67771 23.9997 3.11468 23.9997C2.55165 23.9997 2.01167 23.7761 1.61348 23.378C1.21542 22.9798 0.991802 22.4398 0.991802 21.8768C0.991802 21.3138 1.21542 20.7738 1.61348 20.3756L9.99639 12.0012Z" fill="#9B9A9A"/>
</svg>
