<svg width="31" height="30" viewBox="0 0 31 30" fill="none" xmlns="http://www.w3.org/2000/svg">
<path d="M29.9994 9.93083C29.9994 9.24851 29.9936 8.56738 29.9406 7.88742C29.8306 6.50634 29.4699 5.19049 28.7492 4.00864C27.4584 1.89294 25.5345 0.697571 23.1117 0.247398C21.8439 0.00996972 20.5648 0.0246621 19.2905 0.0170221C15.8652 -0.00119645 12.4393 -0.0176519 9.01338 0.0399421C8.05611 0.0483298 7.10358 0.175261 6.17759 0.417829C3.78893 1.06135 2.0145 2.45419 0.947839 4.70035C0.300666 6.06439 0.0653298 7.52128 0.0394429 9.01755C0.018851 10.2159 -0.0135076 11.4148 0.0064959 12.6136V17.411C0.0064959 18.7739 0.0123793 20.1355 0.0653298 21.4972C0.0982611 22.6383 0.324235 23.7655 0.733683 24.8312C1.65796 27.1908 3.36356 28.71 5.75751 29.494C7.09422 29.9306 8.47387 29.9771 9.86059 29.9641H10.7078C11.2502 29.9835 11.7945 29.9248 12.3363 29.9941H17.7267C18.2062 29.9271 18.6886 29.9812 19.1693 29.9641C19.3911 29.9818 19.6164 29.9271 19.8359 29.9941H20.13C20.5537 29.9218 20.9837 29.9524 21.4085 29.9453C22.4644 29.937 23.512 29.7574 24.5102 29.4135C27.1578 28.4826 28.8286 26.639 29.6094 23.9614C29.9294 22.863 29.9947 21.7364 29.9977 20.6051C30.0053 17.0501 29.9977 13.4905 29.9994 9.93083ZM27.2743 20.2402C27.2448 21.214 27.2154 22.1913 26.9577 23.1387C26.3394 25.4142 24.8138 26.6942 22.5199 27.0656C20.8284 27.3395 19.1146 27.2813 17.4078 27.3007C16.6177 27.3107 15.8269 27.3007 15.0362 27.3007C12.8699 27.3007 10.7025 27.3266 8.53859 27.1832C7.44957 27.1115 6.38939 26.9022 5.43981 26.3357C3.94896 25.4471 3.20706 24.0678 2.96878 22.3982C2.72462 20.6938 2.76875 18.9743 2.75286 17.26C2.73051 14.871 2.72756 12.482 2.79287 10.0936C2.8217 9.04282 2.83994 7.98732 3.10645 6.96004C3.68597 4.7268 5.15623 3.4421 7.39545 3.02249C8.86983 2.74568 10.3689 2.78741 11.8604 2.77213C14.4955 2.74451 17.1307 2.73981 19.7659 2.79329C20.8666 2.81562 21.9727 2.82972 23.0517 3.09419C25.3286 3.65191 26.7647 5.26513 27.1066 7.61179C27.2831 8.83184 27.2984 10.0613 27.3113 11.2878C27.3419 14.2733 27.3654 17.257 27.2743 20.2402Z" fill="white"/>
<path d="M23.0423 5.22904C23.278 5.23055 23.511 5.2784 23.7281 5.36987C23.9453 5.46134 24.1422 5.59464 24.3078 5.76215C24.4734 5.92966 24.6043 6.1281 24.6931 6.34615C24.7818 6.56419 24.8268 6.79758 24.8253 7.03297C24.8238 7.26836 24.7759 7.50115 24.6843 7.71804C24.5927 7.93494 24.4593 8.13169 24.2916 8.29707C24.1239 8.46246 23.9252 8.59322 23.7069 8.68191C23.4886 8.7706 23.255 8.81548 23.0194 8.81397C22.5434 8.81093 22.0882 8.61917 21.7539 8.28087C21.4195 7.94257 21.2334 7.48544 21.2364 7.01005C21.2394 6.53465 21.4314 6.07994 21.7701 5.74594C22.1088 5.41193 22.5664 5.226 23.0423 5.22904Z" fill="white"/>
<path d="M15.0321 7.32666C12.9895 7.32666 11.0305 8.13657 9.58535 9.57847C8.14021 11.0204 7.32717 12.9763 7.32483 15.0166C7.32483 19.2598 10.7737 22.7101 15.0274 22.7154C19.2811 22.7207 22.7275 19.2751 22.7299 15.0231C22.731 14.0127 22.5327 13.012 22.1463 12.0781C21.7599 11.1443 21.193 10.2958 20.4781 9.58098C19.7632 8.86617 18.9142 8.29915 17.9797 7.91234C17.0452 7.52553 16.0436 7.32651 15.0321 7.32666ZM15.0068 20.0062C14.0198 20.0018 13.0562 19.7054 12.2378 19.1542C11.4194 18.603 10.7829 17.8218 10.4089 16.9094C10.0348 15.997 9.93993 14.9943 10.1362 14.0281C10.3325 13.0618 10.8111 12.1753 11.5116 11.4807C12.212 10.7861 13.1029 10.3145 14.0717 10.1255C15.0404 9.93651 16.0435 10.0386 16.9541 10.4189C17.8648 10.7992 18.6421 11.4407 19.1879 12.2622C19.7337 13.0836 20.0235 14.0483 20.0206 15.0343C20.0206 15.6903 19.8907 16.3398 19.6383 16.9454C19.3858 17.551 19.016 18.1007 18.5499 18.5629C18.0838 19.025 17.5308 19.3905 16.9227 19.6382C16.3146 19.8859 15.6635 20.011 15.0068 20.0062Z" fill="white"/>
</svg>
