<svg width="30" height="30" viewBox="0 0 30 30" fill="none" xmlns="http://www.w3.org/2000/svg">
<g clip-path="url(#clip0_130_273)">
<path d="M29.9994 9.93214C29.9994 9.24983 29.9935 8.56869 29.9406 7.88873C29.8306 6.50765 29.4699 5.1918 28.7492 4.00995C27.4584 1.89425 25.5345 0.698884 23.1117 0.24871C21.8438 0.011282 20.5648 0.0259743 19.2905 0.0183343C15.8651 0.00011581 12.4392 -0.0163396 9.01335 0.0412544C8.05608 0.049642 7.10355 0.176573 6.17755 0.419141C3.7889 1.06267 2.01447 2.4555 0.947808 4.70167C0.300635 6.0657 0.0652993 7.5226 0.0394124 9.01886C0.0188205 10.2172 -0.0135381 11.4161 0.00646538 12.615V17.4123C0.00646538 18.7752 0.0123488 20.1369 0.0652993 21.4985C0.0982306 22.6396 0.324204 23.7668 0.733653 24.8325C1.65793 27.1921 3.36353 28.7113 5.75748 29.4953C7.09419 29.9319 8.47384 29.9784 9.86056 29.9654H10.7078C11.2502 29.9848 11.7944 29.9261 12.3363 29.9954H17.7267C18.2061 29.9284 18.6886 29.9825 19.1693 29.9654C19.3911 29.9831 19.6164 29.9284 19.8358 29.9954H20.13C20.5536 29.9231 20.9837 29.9537 21.4085 29.9466C22.4644 29.9384 23.512 29.7587 24.5102 29.4148C27.1577 28.4839 28.8286 26.6403 29.6093 23.9627C29.9294 22.8643 29.9947 21.7377 29.9976 20.6064C30.0053 17.0515 29.9976 13.4918 29.9994 9.93214ZM27.2742 20.2415C27.2448 21.2153 27.2154 22.1926 26.9577 23.14C26.3393 25.4155 24.8138 26.6955 22.5198 27.0669C20.8284 27.3408 19.1145 27.2826 17.4078 27.302C16.6176 27.312 15.8269 27.302 15.0362 27.302C12.8699 27.302 10.7025 27.3279 8.53856 27.1845C7.44954 27.1128 6.38936 26.9036 5.43978 26.337C3.94893 25.4484 3.20703 24.0691 2.96875 22.3995C2.72459 20.6952 2.76872 18.9756 2.75283 17.2613C2.73048 14.8723 2.72753 12.4833 2.79284 10.0949C2.82167 9.04413 2.83991 7.98864 3.10642 6.96135C3.68594 4.72811 5.1562 3.44341 7.39542 3.0238C8.86979 2.747 10.3689 2.78872 11.8603 2.77344C14.4955 2.74582 17.1307 2.74112 19.7658 2.7946C20.8666 2.81693 21.9727 2.83104 23.0517 3.0955C25.3286 3.65322 26.7647 5.26644 27.1065 7.6131C27.283 8.83315 27.2983 10.0626 27.3113 11.2891C27.3419 14.2746 27.3654 17.2583 27.2742 20.2415Z" fill="#9B9A9A"/>
<path d="M23.0423 5.23047C23.2779 5.23198 23.511 5.27983 23.7281 5.3713C23.9452 5.46277 24.1422 5.59607 24.3078 5.76358C24.4733 5.93109 24.6042 6.12953 24.693 6.34758C24.7818 6.56563 24.8267 6.79901 24.8252 7.0344C24.8237 7.26979 24.7758 7.50258 24.6843 7.71948C24.5927 7.93637 24.4592 8.13313 24.2915 8.29851C24.1239 8.46389 23.9252 8.59466 23.7069 8.68335C23.4886 8.77204 23.255 8.81691 23.0193 8.81541C22.5434 8.81237 22.0882 8.6206 21.7538 8.2823C21.4195 7.944 21.2333 7.48687 21.2364 7.01148C21.2394 6.53609 21.4314 6.08138 21.7701 5.74737C22.1087 5.41337 22.5664 5.22744 23.0423 5.23047Z" fill="#9B9A9A"/>
<path d="M15.0321 7.32796C12.9895 7.32796 11.0305 8.13787 9.58535 9.57976C8.14021 11.0217 7.32717 12.9776 7.32483 15.0179C7.32483 19.2611 10.7737 22.7114 15.0274 22.7167C19.2811 22.722 22.7275 19.2764 22.7299 15.0244C22.731 14.014 22.5327 13.0132 22.1463 12.0794C21.7599 11.1456 21.193 10.2971 20.4781 9.58227C19.7632 8.86747 18.9142 8.30045 17.9797 7.91364C17.0452 7.52682 16.0436 7.3278 15.0321 7.32796ZM15.0068 20.0074C14.0198 20.0031 13.0562 19.7067 12.2378 19.1555C11.4194 18.6043 10.7829 17.8231 10.4089 16.9107C10.0348 15.9983 9.93993 14.9956 10.1362 14.0294C10.3325 13.0631 10.8111 12.1766 11.5116 11.482C12.212 10.7874 13.1029 10.3158 14.0717 10.1268C15.0404 9.93781 16.0435 10.0399 16.9541 10.4202C17.8648 10.8005 18.6421 11.442 19.1879 12.2634C19.7337 13.0849 20.0235 14.0496 20.0206 15.0356C20.0206 15.6916 19.8907 16.3411 19.6383 16.9467C19.3858 17.5523 19.016 18.102 18.5499 18.5642C18.0838 19.0263 17.5308 19.3918 16.9227 19.6395C16.3146 19.8872 15.6635 20.0123 15.0068 20.0074Z" fill="#9B9A9A"/>
</g>
<defs>
<clipPath id="clip0_130_273">
<rect width="30" height="30" fill="white"/>
</clipPath>
</defs>
</svg>
