<svg width="30" height="30" viewBox="0 0 30 30" fill="none" xmlns="http://www.w3.org/2000/svg">
<path d="M29.7036 12.0631C28.4549 5.55784 22.8259 0.527502 16.211 0.0441712C12.8906 -0.197092 9.80647 0.548411 6.97704 2.31928C1.45038 5.78302 -1.20412 12.6043 0.522556 18.8788C2.72403 26.8807 10.9568 31.6778 19.0235 29.4566C20.3121 29.1016 21.5461 28.5726 22.6912 27.8843C23.2338 27.5586 23.4885 27.0713 23.4167 26.4368C23.3482 25.8561 23.0137 25.4621 22.472 25.257C21.9811 25.072 21.5361 25.2047 21.0944 25.4572C18.5269 26.9265 15.7741 27.43 12.8648 26.9048C9.71338 26.3365 6.91681 24.5437 5.08922 21.9201C3.26164 19.2964 2.55246 16.0564 3.11741 12.9115C4.29593 6.35321 10.5997 1.99277 17.1968 3.17818C24.3889 4.46974 28.8152 11.9489 26.4791 18.8603C26.3873 19.1478 26.2375 19.4135 26.039 19.6412C25.7481 19.9608 25.3679 20.1863 24.9475 20.2886C24.5271 20.391 24.0856 20.3656 23.6798 20.2156C23.274 20.0657 22.9224 19.7981 22.6703 19.4472C22.4181 19.0963 22.2769 18.6782 22.2648 18.2467C22.2535 16.7098 22.2648 15.1722 22.2648 13.6353C22.2648 12.1781 22.2713 10.7217 22.2648 9.26445C22.2679 9.03244 22.2148 8.80312 22.1099 8.59602C22.005 8.38893 21.8515 8.21019 21.6624 8.07505C21.4734 7.93991 21.2544 7.85237 21.0241 7.81987C20.7938 7.78738 20.559 7.81091 20.3398 7.88844C19.7224 8.1104 19.4177 8.58811 19.3516 9.23308C15.8595 6.74003 11.5485 7.7461 9.3228 10.5335C7.10763 13.3072 7.25273 17.3371 9.68958 19.9717C12.1555 22.6377 16.6551 23.2521 19.8957 20.4076C19.9255 20.4615 19.9537 20.5146 19.9835 20.5684C21.0678 22.4422 22.7082 23.3832 24.8573 23.2127C27.0337 23.0374 28.525 21.8294 29.2336 19.7546C30.0848 17.2374 30.2041 14.6687 29.7036 12.0631ZM15.0534 19.3854C12.6351 19.3959 10.6682 17.4674 10.6577 15.0821C10.6531 14.5089 10.7624 13.9405 10.9791 13.4096C11.1958 12.8787 11.5157 12.3959 11.9203 11.989C12.325 11.582 12.8064 11.259 13.3368 11.0386C13.8672 10.8182 14.4361 10.7048 15.0107 10.7048C17.4056 10.6976 19.3548 12.6454 19.3636 15.0524C19.3661 17.4095 17.4113 19.375 15.0534 19.3854Z" fill="#9B9A9A"/>
</svg>
