<svg width="30" height="31" viewBox="0 0 30 31" fill="none" xmlns="http://www.w3.org/2000/svg">
<path d="M29.7036 12.1073C28.4549 5.57818 22.8259 0.529432 16.211 0.0443328C12.8906 -0.197813 9.80647 0.550418 6.97704 2.32777C1.45038 5.80418 -1.20412 12.6505 0.522556 18.9479C2.72403 26.9791 10.9568 31.7937 19.0235 29.5644C20.3121 29.2081 21.5461 28.6772 22.6912 27.9864C23.2338 27.6595 23.4885 27.1704 23.4167 26.5335C23.3482 25.9508 23.0137 25.5552 22.472 25.3494C21.9811 25.1638 21.5361 25.297 21.0944 25.5504C18.5269 27.0251 15.7741 27.5304 12.8648 27.0033C9.71338 26.4329 6.91681 24.6336 5.08922 22.0003C3.26164 19.3671 2.55246 16.1152 3.11741 12.9588C4.29593 6.37646 10.5997 2.00007 17.1968 3.18981C24.3889 4.4861 28.8152 11.9926 26.4791 18.9293C26.3873 19.2179 26.2375 19.4846 26.039 19.7131C25.7481 20.0338 25.3679 20.2601 24.9475 20.3629C24.5271 20.4656 24.0856 20.4401 23.6798 20.2896C23.274 20.1391 22.9224 19.8705 22.6703 19.5184C22.4181 19.1662 22.2769 18.7466 22.2648 18.3135C22.2535 16.771 22.2648 15.2277 22.2648 13.6852C22.2648 12.2227 22.2713 10.7609 22.2648 9.29836C22.2679 9.0655 22.2148 8.83534 22.1099 8.62748C22.005 8.41963 21.8515 8.24024 21.6624 8.10461C21.4734 7.96897 21.2544 7.88111 21.0241 7.84849C20.7938 7.81588 20.559 7.83949 20.3398 7.91731C19.7224 8.14009 19.4177 8.61954 19.3516 9.26688C15.8595 6.7647 11.5485 7.77445 9.3228 10.572C7.10763 13.3559 7.25273 17.4006 9.68958 20.0448C12.1555 22.7205 16.6551 23.3372 19.8957 20.4823C19.9255 20.5364 19.9537 20.5896 19.9835 20.6437C21.0678 22.5244 22.7082 23.4688 24.8573 23.2976C27.0337 23.1217 28.525 21.9093 29.2336 19.8269C30.0848 17.3005 30.2041 14.7224 29.7036 12.1073ZM15.0534 19.4564C12.6351 19.4669 10.6682 17.5313 10.6577 15.1373C10.6531 14.562 10.7624 13.9915 10.9791 13.4587C11.1958 12.9258 11.5157 12.4412 11.9203 12.0328C12.325 11.6244 12.8064 11.3002 13.3368 11.079C13.8672 10.8578 14.4361 10.744 15.0107 10.744C17.4056 10.7367 19.3548 12.6916 19.3636 15.1074C19.3661 17.4732 17.4113 19.4459 15.0534 19.4564Z" fill="white"/>
</svg>
