<svg width="50" height="50" viewBox="0 0 50 50" fill="none" xmlns="http://www.w3.org/2000/svg">
<rect width="50" height="50" rx="20" fill="#FF1430"/>
<path d="M9 15.0426C9 13.9145 9.91448 13 11.0426 13H38.9574C40.0855 13 41 13.9145 41 15.0426C41 16.1706 40.0855 17.0851 38.9574 17.0851H11.0426C9.91448 17.0851 9 16.1706 9 15.0426Z" fill="white"/>
<path d="M9 34.9574C9 33.8294 9.91448 32.9149 11.0426 32.9149H38.9574C40.0855 32.9149 41 33.8294 41 34.9574C41 36.0855 40.0855 37 38.9574 37H11.0426C9.91448 37 9 36.0855 9 34.9574Z" fill="white"/>
<path d="M9 25.2553C9 24.1272 9.79594 23.2128 10.7778 23.2128H39.2222C40.2041 23.2128 41 24.1272 41 25.2553C41 26.3834 40.2041 27.2979 39.2222 27.2979H10.7778C9.79594 27.2979 9 26.3834 9 25.2553Z" fill="white"/>
</svg>
