<svg width="25" height="25" viewBox="0 0 25 25" fill="none" xmlns="http://www.w3.org/2000/svg">
<path d="M12.4994 0C5.59607 0 0 5.59607 0 12.4994C0 19.4028 5.59607 25 12.4994 25C19.4028 25 25 19.4028 25 12.4994C25 5.59607 19.4028 0 12.4994 0ZM21.6596 13.9039H3.33989C2.96739 13.9039 2.61015 13.756 2.34676 13.4926C2.08337 13.2292 1.93539 12.8719 1.93539 12.4994C1.93539 12.1269 2.08337 11.7697 2.34676 11.5063C2.61015 11.2429 2.96739 11.0949 3.33989 11.0949H21.6596C22.032 11.0949 22.3893 11.2429 22.6527 11.5063C22.9161 11.7697 23.064 12.1269 23.064 12.4994C23.064 12.8719 22.9161 13.2292 22.6527 13.4926C22.3893 13.756 22.032 13.9039 21.6596 13.9039Z" fill="#FF1430"/>
</svg>
