<svg width="25" height="25" viewBox="0 0 25 25" fill="none" xmlns="http://www.w3.org/2000/svg">
<path d="M12.4994 0C5.59607 0 0 5.59607 0 12.4994C0 19.4028 5.59607 25 12.4994 25C19.4028 25 25 19.4028 25 12.4994C25 5.59607 19.4028 0 12.4994 0ZM21.6596 13.9039H13.9067V21.6596C13.9067 22.032 13.7588 22.3893 13.4954 22.6527C13.232 22.9161 12.8747 23.064 12.5022 23.064C12.1298 23.064 11.7725 22.9161 11.5091 22.6527C11.2457 22.3893 11.0978 22.032 11.0978 21.6596V13.9067H3.34494C3.1605 13.9067 2.97787 13.8704 2.80747 13.7998C2.63707 13.7292 2.48224 13.6258 2.35182 13.4954C2.2214 13.365 2.11794 13.2101 2.04736 13.0397C1.97678 12.8693 1.94045 12.6867 1.94045 12.5022C1.94045 12.3178 1.97678 12.1352 2.04736 11.9648C2.11794 11.7944 2.2214 11.6395 2.35182 11.5091C2.48224 11.3787 2.63707 11.2752 2.80747 11.2047C2.97787 11.1341 3.1605 11.0978 3.34494 11.0978H11.0978V3.34494C11.0978 2.97245 11.2457 2.61521 11.5091 2.35182C11.7725 2.08842 12.1298 1.94045 12.5022 1.94045C12.8747 1.94045 13.232 2.08842 13.4954 2.35182C13.7588 2.61521 13.9067 2.97245 13.9067 3.34494V11.0978H21.6596C22.032 11.0978 22.3893 11.2457 22.6527 11.5091C22.9161 11.7725 23.064 12.1298 23.064 12.5022C23.064 12.8747 22.9161 13.232 22.6527 13.4954C22.3893 13.7588 22.032 13.9067 21.6596 13.9067V13.9039Z" fill="#FF1430"/>
</svg>
