<svg width="32" height="32" viewBox="0 0 32 32" fill="none" xmlns="http://www.w3.org/2000/svg">
<path d="M31.3362 13.6393C31.8874 13.0775 32.1642 12.4446 31.8991 11.6596C31.6458 10.9237 31.0711 10.6146 30.344 10.5067C27.7778 10.124 25.2187 9.70449 22.6549 9.32181C22.4187 9.30806 22.1909 9.2254 21.9973 9.08319C21.8037 8.94098 21.652 8.74491 21.5595 8.51718C20.436 6.08124 19.2608 3.67964 18.1232 1.24861C17.783 0.549471 17.3561 0.0171448 16.5375 -2.70126e-05C15.7189 -0.0171988 15.2333 0.520033 14.8956 1.25597C13.7439 3.67964 12.571 6.09106 11.4381 8.52209C11.3579 8.7414 11.2204 8.93269 11.0412 9.07411C10.862 9.21553 10.6484 9.30137 10.4248 9.32181C7.85864 9.69468 5.30189 10.1264 2.73576 10.5018C1.97577 10.6121 1.37059 10.8795 1.09381 11.6645C0.809983 12.4912 1.14776 13.1217 1.71775 13.7006C3.3597 15.3736 4.93362 17.135 6.64359 18.7295C7.58185 19.5979 7.73666 20.4467 7.49506 21.6732C7.00482 24.1582 6.67643 26.68 6.28002 29.1847C6.212 30.6075 7.52321 31.4145 8.82504 30.7203C11.1707 29.466 13.5163 28.1928 15.862 26.9008C16.0507 26.7745 16.2701 26.7074 16.4941 26.7074C16.7182 26.7074 16.9375 26.7745 17.1263 26.9008C19.4719 28.2083 21.8551 29.479 24.2195 30.7694C24.8552 31.1177 25.4721 31.1177 26.0444 30.6663C26.2963 30.4742 26.4893 30.2095 26.5997 29.9046C26.7101 29.5996 26.7331 29.2676 26.666 28.9492C26.218 26.1649 25.7864 23.3806 25.3126 20.6086C25.2647 20.4087 25.2719 20.1987 25.3333 20.003C25.3947 19.8072 25.5079 19.6336 25.6597 19.5022C27.5667 17.5324 29.4409 15.5748 31.3362 13.6393ZM23.816 16.6149C21.3484 19.1686 21.7683 18.4106 22.2491 21.8327C22.4485 23.2506 22.6948 24.6611 22.9528 26.2238C21.1725 25.267 19.5165 24.4183 17.9074 23.4714C16.9339 22.8973 16.0918 22.8826 15.109 23.4714C13.5046 24.4305 11.8251 25.272 10.0659 26.2311C10.4013 24.0626 10.6758 22.0314 11.0464 20.0174C11.2153 19.0999 10.9596 18.4474 10.3614 17.8096C8.99627 16.3647 7.66395 14.883 6.2894 13.394C7.53963 13.1879 8.86961 12.9671 10.2113 12.7513C13.6758 12.187 13.0261 12.6948 14.5766 9.49598L16.5023 5.49249C17.4406 7.45499 18.3249 9.25557 19.1646 11.0782C19.5352 11.8804 20.056 12.3489 20.9356 12.4692C22.8872 12.7365 24.8294 13.08 26.7997 13.394C25.784 14.4881 24.8223 15.5748 23.816 16.6149Z" fill="#FF1430"/>
</svg>
