<svg width="35" height="30" viewBox="0 0 35 30" fill="none" xmlns="http://www.w3.org/2000/svg">
<path d="M33.9113 0.568072C33.2682 -0.0351942 32.5093 -0.125726 31.6844 0.145024C21.644 3.45664 11.6037 6.76657 1.56336 10.0748C0.910171 10.2906 0.419436 10.6823 0.149532 11.327C0.0987658 11.4472 0.104688 11.591 0.00146484 11.6891V12.432C0.217219 13.345 0.827254 13.8526 1.67081 14.2088C3.96288 15.1768 6.23296 16.1971 8.51572 17.1879C8.59819 17.2162 8.67138 17.2665 8.72744 17.3333C8.78349 17.4 8.82028 17.4808 8.83385 17.567C9.41992 20.3106 10.0094 23.0542 10.6022 25.7978C10.7562 26.5102 10.8924 27.2285 11.0794 27.9325C11.3061 28.7845 12.0152 29.0324 12.747 28.5459C12.8773 28.4613 13.0009 28.3598 13.1261 28.2658C14.8549 26.973 16.5818 25.6785 18.3067 24.3823C18.498 24.2376 18.613 24.213 18.8144 24.3823C19.8043 25.214 20.8112 26.0271 21.8121 26.8453C22.8824 27.721 23.9485 28.6034 25.0273 29.4681C26.1272 30.3532 27.5258 30.1112 28.2374 28.9199C28.4844 28.507 28.531 28.0281 28.6384 27.5712C30.4536 19.8706 32.2667 12.1711 34.078 4.4728C34.2142 3.89407 34.3445 3.31365 34.4883 2.73661C34.6897 1.90321 34.5442 1.16118 33.9113 0.568072ZM12.2893 23.323C12.2741 23.3746 12.2521 23.4245 12.1954 23.5768C11.7334 21.426 11.2935 19.3649 10.8416 17.3055C10.8095 17.1566 10.8289 17.0898 10.9635 17.0153C14.0173 15.3231 17.0689 13.6309 20.1182 11.9387C20.1571 11.9176 20.1935 11.8888 20.2451 11.9252C20.2096 12.0487 20.1013 12.1164 20.0209 12.201C17.9847 14.3332 15.9461 16.4631 13.9053 18.5907C13.6484 18.855 13.4634 19.1807 13.3681 19.5367C13.0178 20.8016 12.6506 22.0614 12.2893 23.323ZM13.8757 25.1666C14.2573 23.8281 14.6152 22.5716 14.9883 21.2653L16.9479 22.8669L13.8757 25.1666ZM32.4721 2.39479C30.5576 10.5562 28.6398 18.7168 26.7186 26.8766C26.634 27.2353 26.5494 27.5932 26.4436 28.0103L15.9368 19.414C16.1424 19.1957 16.3404 18.9825 16.5418 18.7718L26.3886 8.47737C26.8388 8.00694 26.942 7.58305 26.7135 7.14731C26.6092 6.9329 26.4301 6.764 26.2099 6.67238C25.9897 6.58076 25.7437 6.57273 25.518 6.6498C25.3599 6.706 25.2075 6.77711 25.0628 6.86217C20.0105 9.66613 14.9604 12.4732 9.91263 15.2834C9.81663 15.3458 9.70571 15.3814 9.59133 15.3866C9.47694 15.3918 9.36325 15.3664 9.26198 15.313C6.96568 14.2977 4.6626 13.2967 2.36292 12.2873C2.25546 12.2408 2.12686 12.2222 2.04817 12.1071C2.13278 11.9963 2.26223 11.9912 2.37476 11.954C12.309 8.67733 22.2436 5.40181 32.1785 2.12743C32.2851 2.09274 32.4137 1.96921 32.5169 2.07751C32.5922 2.16042 32.4966 2.29072 32.4721 2.39479Z" fill="white"/>
</svg>
