<svg width="35" height="30" viewBox="0 0 35 30" fill="none" xmlns="http://www.w3.org/2000/svg">
<g clip-path="url(#clip0_130_278)">
<path d="M33.9113 0.567782C33.2682 -0.0354842 32.5093 -0.126016 31.6844 0.144734C21.644 3.45635 11.6037 6.76628 1.56336 10.0745C0.910171 10.2903 0.419436 10.682 0.149532 11.3267C0.0987658 11.4469 0.104688 11.5907 0.00146484 11.6889V12.4317C0.217219 13.3447 0.827254 13.8523 1.67081 14.2085C3.96288 15.1765 6.23296 16.1969 8.51572 17.1876C8.59819 17.2159 8.67138 17.2662 8.72744 17.333C8.78349 17.3998 8.82028 17.4806 8.83385 17.5667C9.41992 20.3103 10.0094 23.0539 10.6022 25.7975C10.7562 26.5099 10.8924 27.2282 11.0794 27.9322C11.3061 28.7842 12.0152 29.0321 12.747 28.5456C12.8773 28.461 13.0009 28.3595 13.1261 28.2656C14.8549 26.9727 16.5818 25.6782 18.3067 24.382C18.498 24.2373 18.613 24.2128 18.8144 24.382C19.8043 25.2137 20.8112 26.0268 21.8121 26.845C22.8824 27.7207 23.9485 28.6031 25.0273 29.4679C26.1272 30.3529 27.5258 30.1109 28.2374 28.9196C28.4844 28.5067 28.531 28.0278 28.6384 27.5709C30.4536 19.8703 32.2667 12.1708 34.078 4.47251C34.2142 3.89378 34.3445 3.31336 34.4883 2.73632C34.6897 1.90292 34.5442 1.16089 33.9113 0.567782ZM12.2893 23.3227C12.2741 23.3743 12.2521 23.4242 12.1954 23.5765C11.7334 21.4257 11.2935 19.3646 10.8416 17.3052C10.8095 17.1563 10.8289 17.0895 10.9635 17.015C14.0173 15.3228 17.0689 13.6306 20.1182 11.9385C20.1571 11.9173 20.1935 11.8885 20.2451 11.9249C20.2096 12.0484 20.1013 12.1161 20.0209 12.2007C17.9847 14.3329 15.9461 16.4628 13.9053 18.5905C13.6484 18.8547 13.4634 19.1804 13.3681 19.5364C13.0178 20.8013 12.6506 22.0611 12.2893 23.3227ZM13.8757 25.1663C14.2573 23.8278 14.6152 22.5713 14.9883 21.265L16.9479 22.8666L13.8757 25.1663ZM32.4721 2.3945C30.5576 10.5559 28.6398 18.7165 26.7186 26.8763C26.634 27.235 26.5494 27.5929 26.4436 28.01L15.9368 19.4137C16.1424 19.1954 16.3404 18.9822 16.5418 18.7715L26.3886 8.47708C26.8388 8.00665 26.942 7.58276 26.7135 7.14702C26.6092 6.93261 26.4301 6.76371 26.2099 6.67209C25.9897 6.58047 25.7437 6.57244 25.518 6.64951C25.3599 6.70571 25.2075 6.77682 25.0628 6.86188C20.0105 9.66584 14.9604 12.4729 9.91263 15.2831C9.81663 15.3455 9.70571 15.3811 9.59133 15.3863C9.47694 15.3916 9.36325 15.3661 9.26198 15.3127C6.96568 14.2974 4.6626 13.2964 2.36292 12.287C2.25546 12.2405 2.12686 12.2219 2.04817 12.1068C2.13278 11.996 2.26223 11.9909 2.37476 11.9537C12.309 8.67704 22.2436 5.40152 32.1785 2.12714C32.2851 2.09245 32.4137 1.96892 32.5169 2.07722C32.5922 2.16013 32.4966 2.29043 32.4721 2.3945Z" fill="#9B9A9A"/>
</g>
<defs>
<clipPath id="clip0_130_278">
<rect width="34.5723" height="30" fill="white"/>
</clipPath>
</defs>
</svg>
