<svg width="25" height="25" viewBox="0 0 25 25" fill="none" xmlns="http://www.w3.org/2000/svg">
<path d="M23.9769 11.1454C23.9569 10.3644 23.8818 9.59338 23.6642 8.83683C23.1827 7.15447 22.3481 5.59512 21.2165 4.26364C20.0848 2.93215 18.6824 1.85938 17.1036 1.11745C15.7593 0.490235 14.3656 0.0915519 12.8694 0.123572C12.7206 0.110387 12.5674 0.152453 12.4217 0.100342H11.5783C11.4307 0.152453 11.2782 0.110387 11.1287 0.123572C10.5397 0.139268 9.95014 0.149942 9.37053 0.273627C8.30137 0.501536 7.29722 0.901474 6.32747 1.40375C5.00508 2.08999 3.88402 3.03176 2.89551 4.13363C1.90501 5.24849 1.13609 6.54337 0.630246 7.94842C0.363892 8.67233 0.137554 9.40817 0.0750293 10.1854C0.0487691 10.5107 0.0518953 10.8365 0 11.1617V13.0917C0.0431419 13.1476 0.0181321 13.2129 0.023134 13.2732C0.0631497 13.7704 0.0612739 14.2715 0.165064 14.7631C0.409273 15.8754 0.809238 16.9473 1.35303 17.9469C2.03329 19.2277 2.9424 20.3289 4.01657 21.2902C5.12332 22.2768 6.40479 23.0458 7.79429 23.5573C8.51583 23.8267 9.24924 24.0521 10.0227 24.1224C10.354 24.1519 10.6879 24.1494 11.0174 24.2027H12.8932C12.9332 24.167 12.9819 24.1814 13.027 24.1795C13.7629 24.1538 14.4907 24.0922 15.2072 23.8907C17.0698 23.3694 18.7825 22.4113 20.2041 21.0952C21.6257 19.7791 22.7157 18.1427 23.3841 16.3208C23.6424 15.6125 23.8618 14.8924 23.9237 14.1327C23.9519 13.7861 23.9525 13.4371 24.0019 13.0917V11.2559C23.97 11.2239 23.9775 11.1837 23.9769 11.1454ZM18.8117 9.13254L10.4103 17.5614C10.2928 17.6794 10.1752 17.7931 9.9764 17.7931C9.8567 17.78 9.7457 17.7241 9.66377 17.6355C8.15444 16.1127 6.64489 14.5904 5.13513 13.0685C4.90379 12.8343 4.90629 12.6045 5.13513 12.3697C5.69201 11.808 6.25057 11.248 6.81079 10.6896C7.06088 10.4385 7.2866 10.4416 7.53982 10.6953C8.30887 11.4644 9.0798 12.2316 9.83947 13.0101C9.98015 13.1545 10.0496 13.1357 10.1827 13.0032C12.2364 10.9301 14.2941 8.86047 16.3558 6.79444C16.7265 6.42213 16.9072 6.41773 17.2717 6.78628C17.7857 7.30111 18.299 7.81678 18.8117 8.33329C19.1081 8.63215 19.1081 8.83557 18.8117 9.13254Z" fill="#FF1430"/>
</svg>
