<svg width="30" height="30" viewBox="0 0 30 30" fill="none" xmlns="http://www.w3.org/2000/svg">
<g clip-path="url(#clip0_130_281)">
<path d="M29.9703 13.629C29.9773 12.7436 29.8101 11.8825 29.5796 11.0346C28.7669 8.00891 27.1448 5.47707 24.7795 3.43831C22.7549 1.69962 20.3998 0.617332 17.7665 0.145347C17.257 0.0539189 16.7421 0.0672033 16.2334 0H14.0072C13.6048 0.0695475 13.1938 0.0437603 12.7922 0.111745C9.18134 0.728296 6.12297 2.36462 3.68033 5.10354C2.23062 6.72798 1.1778 8.66682 0.604773 10.7674C0.107318 12.5687 -0.0560833 14.4459 0.122654 16.3062C0.303237 18.2871 0.892004 20.2091 1.85188 21.9512C2.00034 22.224 2.00034 22.4678 1.92298 22.7592C1.28849 25.1325 0.553201 27.4791 0.00622679 29.8765C-0.017215 29.9781 0.0218546 30.0172 0.123436 29.9937C0.357853 29.9258 0.601648 29.9305 0.836847 29.8672C3.11695 29.2553 5.40487 28.6723 7.6881 28.0699C7.75735 28.0463 7.83086 28.0378 7.90366 28.0451C7.97645 28.0524 8.04683 28.0752 8.11005 28.1121C8.29806 28.2157 8.49191 28.3083 8.69062 28.3895C11.1433 29.5586 13.8729 30.0223 16.5741 29.7288C20.3599 29.3276 23.8592 27.5261 26.3853 24.6777C28.19 22.6439 29.392 20.1473 29.8562 17.4682C29.9437 16.9782 29.9343 16.482 30 15.9928V13.7665C29.9857 13.7469 29.9757 13.7246 29.9706 13.7009C29.9654 13.6772 29.9654 13.6527 29.9703 13.629ZM17.7102 26.8938C14.4401 27.5971 11.381 27.0446 8.52653 25.3231C8.45601 25.2753 8.37565 25.244 8.29139 25.2314C8.20714 25.2188 8.12113 25.2253 8.03972 25.2505C6.65744 25.6185 5.27203 25.9756 3.88818 26.3343C3.81395 26.3538 3.73816 26.3679 3.61079 26.3968C3.87021 25.4505 4.11479 24.5503 4.36327 23.6516C4.5047 23.1359 4.64535 22.6186 4.79851 22.1067C4.82578 22.0257 4.83292 21.9393 4.81931 21.8548C4.8057 21.7704 4.77174 21.6906 4.72037 21.6223C3.74285 20.1305 3.08335 18.5114 2.81299 16.7414C2.38557 13.9533 2.85753 11.3159 4.23356 8.86614C6.13781 5.4755 9.01724 3.37345 12.8484 2.65687C19.5129 1.40658 26.0539 5.89122 27.2917 12.5318C27.8862 15.7029 27.2166 18.9807 25.4261 21.6645C23.6356 24.3483 20.8663 26.2252 17.7102 26.8938Z" fill="#9B9A9A"/>
<path d="M18.9964 21.945C18.1572 21.9739 17.3953 21.6699 16.6163 21.4144C13.9502 20.5423 11.8623 18.8825 10.1182 16.7328C9.32512 15.756 8.5281 14.7871 7.99832 13.6298C7.15285 11.7832 7.31772 10.0805 8.67344 8.51761C8.99459 8.14722 9.3806 7.94482 9.86897 7.94482C10.1511 7.94482 10.4347 7.94482 10.7168 7.96749C10.9989 7.99015 11.1528 8.20817 11.2575 8.44416C11.4747 8.93256 11.6787 9.4272 11.8865 9.91951C12.0866 10.3946 12.2772 10.8744 12.4882 11.3433C12.5531 11.474 12.5822 11.6197 12.5724 11.7653C12.5627 11.911 12.5145 12.0514 12.4327 12.1724C12.189 12.5605 11.9102 12.9254 11.5998 13.2625C11.252 13.6587 11.2489 13.7626 11.5216 14.215C12.7085 16.1811 14.3448 17.6229 16.4788 18.491C16.9476 18.6809 17.0969 18.652 17.4164 18.2715C17.7751 17.8471 18.1384 17.426 18.4651 16.9758C18.6932 16.6633 18.8362 16.6172 19.2191 16.7328C19.3309 16.7664 19.4395 16.811 19.5481 16.8508C20.4498 17.1939 21.2562 17.7456 22.1892 18.03C22.6299 18.1636 22.658 18.3113 22.651 18.763C22.626 20.7533 21.0976 21.6355 19.6129 21.9036C19.4084 21.9293 19.2025 21.9431 18.9964 21.945Z" fill="#9B9A9A"/>
</g>
<defs>
<clipPath id="clip0_130_281">
<rect width="30" height="30" fill="white"/>
</clipPath>
</defs>
</svg>
