<svg width="30" height="30" viewBox="0 0 30 30" fill="none" xmlns="http://www.w3.org/2000/svg">
<path d="M29.9703 13.629C29.9773 12.7436 29.8101 11.8825 29.5796 11.0346C28.767 8.00891 27.1448 5.47707 24.7795 3.43831C22.7549 1.69962 20.3998 0.617332 17.7665 0.145347C17.2571 0.0539189 16.7421 0.0672033 16.2334 0H14.0072C13.6048 0.0695475 13.1938 0.0437603 12.7922 0.111745C9.18137 0.728296 6.123 2.36462 3.68036 5.10354C2.23065 6.72798 1.17783 8.66682 0.604804 10.7674C0.107348 12.5687 -0.0560528 14.4459 0.122685 16.3062C0.303268 18.2871 0.892034 20.2091 1.85191 21.9512C2.00037 22.224 2.00037 22.4678 1.92301 22.7592C1.28852 25.1325 0.553232 27.4791 0.0062573 29.8765C-0.0171845 29.9781 0.0218852 30.0172 0.123466 29.9937C0.357884 29.9258 0.601678 29.9305 0.836878 29.8672C3.11698 29.2553 5.4049 28.6723 7.68813 28.0699C7.75738 28.0463 7.83089 28.0378 7.90369 28.0451C7.97648 28.0524 8.04686 28.0752 8.11008 28.1121C8.29809 28.2157 8.49194 28.3083 8.69065 28.3895C11.1434 29.5586 13.8729 30.0223 16.5741 29.7288C20.36 29.3276 23.8592 27.5261 26.3853 24.6777C28.19 22.6439 29.392 20.1473 29.8562 17.4682C29.9437 16.9782 29.9344 16.482 30 15.9928V13.7665C29.9857 13.7469 29.9757 13.7246 29.9706 13.7009C29.9655 13.6772 29.9654 13.6527 29.9703 13.629ZM17.7103 26.8938C14.4401 27.5971 11.381 27.0446 8.52656 25.3231C8.45604 25.2753 8.37568 25.244 8.29142 25.2314C8.20717 25.2188 8.12116 25.2253 8.03975 25.2505C6.65747 25.6185 5.27206 25.9756 3.88821 26.3343C3.81398 26.3538 3.73819 26.3679 3.61082 26.3968C3.87024 25.4505 4.11482 24.5503 4.3633 23.6516C4.50473 23.1359 4.64538 22.6186 4.79854 22.1067C4.82581 22.0257 4.83295 21.9393 4.81934 21.8548C4.80573 21.7704 4.77177 21.6906 4.7204 21.6223C3.74288 20.1305 3.08338 18.5114 2.81302 16.7414C2.3856 13.9533 2.85756 11.3159 4.23359 8.86614C6.13784 5.4755 9.01727 3.37345 12.8484 2.65687C19.5129 1.40658 26.054 5.89122 27.2917 12.5318C27.8862 15.7029 27.2166 18.9807 25.4262 21.6645C23.6357 24.3483 20.8664 26.2252 17.7103 26.8938Z" fill="white"/>
<path d="M18.9964 21.945C18.1572 21.9739 17.3954 21.6699 16.6163 21.4144C13.9502 20.5423 11.8623 18.8825 10.1183 16.7328C9.32515 15.756 8.52813 14.7871 7.99835 13.6298C7.15288 11.7832 7.31775 10.0805 8.67347 8.51761C8.99462 8.14722 9.38063 7.94482 9.869 7.94482C10.1511 7.94482 10.4347 7.94482 10.7168 7.96749C10.9989 7.99015 11.1528 8.20817 11.2575 8.44416C11.4748 8.93256 11.6787 9.4272 11.8866 9.91951C12.0866 10.3946 12.2773 10.8744 12.4882 11.3433C12.5531 11.474 12.5822 11.6197 12.5725 11.7653C12.5627 11.911 12.5145 12.0514 12.4327 12.1724C12.189 12.5605 11.9102 12.9254 11.5998 13.2625C11.2521 13.6587 11.2489 13.7626 11.5216 14.215C12.7086 16.1811 14.3448 17.6229 16.4788 18.491C16.9476 18.6809 17.0969 18.652 17.4165 18.2715C17.7751 17.8471 18.1385 17.426 18.4651 16.9758C18.6933 16.6633 18.8363 16.6172 19.2191 16.7328C19.3309 16.7664 19.4395 16.811 19.5481 16.8508C20.4498 17.1939 21.2562 17.7456 22.1892 18.03C22.6299 18.1636 22.6581 18.3113 22.651 18.763C22.626 20.7533 21.0976 21.6355 19.613 21.9036C19.4084 21.9293 19.2026 21.9431 18.9964 21.945Z" fill="white"/>
</svg>
